<svg width="381" height="228" viewBox="0 0 381 228" fill="none" xmlns="http://www.w3.org/2000/svg">
<path d="M122.467 118.875C122.857 119.461 123.15 120.047 123.346 120.633C123.541 121.219 123.834 121.707 124.225 122.098C125.201 123.27 125.885 124.051 126.275 124.441C126.666 124.832 127.057 125.125 127.447 125.32C128.229 125.906 128.814 126.395 129.205 126.785C129.596 126.98 129.889 127.273 130.084 127.664C130.67 127.859 131.158 128.25 131.549 128.836C131.939 129.227 132.525 129.422 133.307 129.422C134.479 131.57 135.553 132.742 136.529 132.938L139.166 134.988C139.557 135.379 139.947 135.867 140.338 136.453C140.924 136.844 141.51 137.234 142.096 137.625C144.244 139.578 145.416 140.848 145.611 141.434C146.979 143.191 147.955 144.266 148.541 144.656C149.127 145.047 149.615 145.438 150.006 145.828C151.568 147.391 152.74 148.758 153.521 149.93C155.279 151.492 156.256 152.664 156.451 153.445C156.646 154.227 156.939 154.812 157.33 155.203C157.916 156.961 158.209 158.133 158.209 158.719C159.381 160.672 160.064 162.234 160.26 163.406C160.65 164.383 161.041 165.457 161.432 166.629C161.236 168.777 161.041 170.145 160.846 170.73C160.846 171.316 160.748 171.902 160.553 172.488C159.576 174.832 159.088 176.297 159.088 176.883C159.283 177.469 159.186 178.152 158.795 178.934C158.6 179.715 158.209 180.398 157.623 180.984C157.232 181.57 157.037 182.352 157.037 183.328C156.451 183.719 155.963 184.207 155.572 184.793C155.182 185.379 154.791 185.965 154.4 186.551C153.033 187.918 152.252 188.699 152.057 188.895C151.861 188.895 151.568 189.09 151.178 189.48L148.834 192.996C147.467 194.559 146.686 195.438 146.49 195.633C146.295 195.633 146.1 195.828 145.904 196.219C144.928 197.195 144.049 198.27 143.268 199.441C140.729 201.004 138.775 202.664 137.408 204.422C135.26 205.789 133.99 206.668 133.6 207.059C133.404 207.254 133.111 207.547 132.721 207.938C131.354 208.523 130.377 209.012 129.791 209.402C129.4 209.793 129.01 210.184 128.619 210.574C126.471 211.941 125.006 212.82 124.225 213.211L121.588 215.262C120.221 216.434 119.439 217.02 119.244 217.02C119.049 217.02 118.854 217.117 118.658 217.312L116.021 219.363C114.459 219.754 113.58 220.047 113.385 220.242C113.189 220.438 112.896 220.535 112.506 220.535C110.943 221.512 109.088 222.195 106.939 222.586C104.986 222.977 103.033 223.562 101.08 224.344C99.3223 224.148 98.1504 224.051 97.5645 224.051C97.1738 224.051 96.7832 224.148 96.3926 224.344C94.4395 224.539 92.7793 224.734 91.4121 224.93C90.2402 225.125 88.9707 225.223 87.6035 225.223L82.3301 224.93C80.1816 224.539 78.9121 224.246 78.5215 224.051C78.1309 223.855 77.7402 223.66 77.3496 223.465C75.5918 223.074 74.5176 222.879 74.127 222.879C73.7363 223.074 73.3457 223.172 72.9551 223.172C71.9785 223.172 71.0996 223.074 70.3184 222.879C69.7324 222.879 68.9512 222.879 67.9746 222.879C67.3887 222.879 66.7051 222.879 65.9238 222.879C65.3379 223.074 64.6543 223.074 63.873 222.879C63.4824 222.879 62.8965 222.879 62.1152 222.879C61.5293 223.074 61.041 223.172 60.6504 223.172C59.0879 223.172 57.916 223.27 57.1348 223.465C56.5488 223.66 55.6699 223.758 54.498 223.758C52.9355 223.562 51.8613 223.562 51.2754 223.758C50.8848 223.953 50.4941 224.148 50.1035 224.344C48.1504 224.734 46.3926 224.832 44.8301 224.637C43.2676 224.637 41.998 224.93 41.0215 225.516C40.2402 225.125 39.459 224.93 38.6777 224.93C38.0918 225.125 37.4082 225.32 36.627 225.516C33.8926 225.32 31.9395 225.32 30.7676 225.516C29.5957 225.711 28.3262 225.711 26.959 225.516C25.3965 225.125 24.5176 224.93 24.3223 224.93C24.127 225.125 23.834 225.223 23.4434 225.223C23.0527 225.223 22.4668 225.125 21.6855 224.93C20.9043 224.93 20.3184 225.027 19.9277 225.223C16.8027 224.441 14.752 224.148 13.7754 224.344C12.7988 224.539 11.8223 224.539 10.8457 224.344C9.86914 223.953 8.89258 223.465 7.91602 222.879C6.54883 221.707 5.66992 220.926 5.2793 220.535C5.08398 220.145 4.98633 219.754 4.98633 219.363C4.98633 217.801 4.88867 216.727 4.69336 216.141C4.69336 215.555 4.69336 214.969 4.69336 214.383C4.88867 213.406 4.88867 212.723 4.69336 212.332C4.69336 211.746 4.69336 211.16 4.69336 210.574L4.40039 205.887V202.371C4.79102 201.004 4.88867 200.223 4.69336 200.027C4.69336 199.637 4.79102 199.246 4.98633 198.855C5.18164 197.879 5.2793 197 5.2793 196.219C5.47461 195.438 5.66992 194.363 5.86523 192.996C6.45117 190.848 6.64648 189.578 6.45117 189.188C6.45117 188.602 6.45117 188.113 6.45117 187.723C6.64648 186.746 6.8418 185.965 7.03711 185.379C7.23242 184.598 7.33008 183.816 7.33008 183.035V179.52C7.52539 178.152 7.52539 177.371 7.33008 177.176C7.33008 176.98 7.33008 176.688 7.33008 176.297C7.52539 175.32 7.62305 174.344 7.62305 173.367C7.81836 172.195 7.91602 170.926 7.91602 169.559C8.11133 167.02 8.11133 165.555 7.91602 165.164C7.91602 164.773 7.91602 164.383 7.91602 163.992C8.11133 161.648 8.11133 160.086 7.91602 159.305C7.91602 158.523 7.91602 157.645 7.91602 156.668C8.11133 156.277 8.11133 155.789 7.91602 155.203C7.7207 154.422 7.62305 153.641 7.62305 152.859C7.62305 152.078 7.62305 151.395 7.62305 150.809C7.81836 150.027 7.91602 149.148 7.91602 148.172C7.91602 145.633 7.81836 143.777 7.62305 142.605C7.62305 141.434 7.52539 140.262 7.33008 139.09C7.33008 138.309 7.23242 137.625 7.03711 137.039C7.03711 136.258 7.03711 135.477 7.03711 134.695V125.906C6.8418 123.953 6.74414 122.879 6.74414 122.684L6.1582 112.43C5.96289 111.844 5.76758 111.258 5.57227 110.672C5.37695 110.086 5.2793 109.5 5.2793 108.914L5.57227 105.398L5.86523 101.59C5.66992 99.4414 5.37695 97.7812 4.98633 96.6094C5.18164 93.875 5.08398 92.1172 4.69336 91.3359C4.49805 90.3594 4.5957 89.4805 4.98633 88.6992C4.98633 87.332 4.88867 86.4531 4.69336 86.0625C4.69336 85.4766 4.69336 84.9883 4.69336 84.5977C3.91211 81.082 3.42383 78.4453 3.22852 76.6875C3.0332 75.3203 3.0332 73.8555 3.22852 72.293C3.42383 70.7305 3.42383 69.168 3.22852 67.6055C3.22852 67.0195 3.13086 66.4336 2.93555 65.8477C2.93555 65.2617 2.93555 64.7734 2.93555 64.3828C2.74023 63.2109 2.74023 61.9414 2.93555 60.5742C3.13086 59.207 3.22852 58.0352 3.22852 57.0586C3.22852 55.3008 3.13086 54.3242 2.93555 54.1289C2.74023 53.9336 2.64258 53.7383 2.64258 53.543C2.64258 52.7617 2.74023 52.0781 2.93555 51.4922C3.13086 50.9062 3.22852 50.3203 3.22852 49.7344L2.93555 43.582C2.74023 42.9961 2.54492 42.5078 2.34961 42.1172C2.1543 41.5312 2.05664 40.8477 2.05664 40.0664V35.3789C2.05664 33.6211 1.95898 31.8633 1.76367 30.1055C1.56836 28.1523 1.66602 26.4922 2.05664 25.125C1.66602 24.5391 1.4707 23.5625 1.4707 22.1953C1.66602 20.6328 1.4707 19.5586 0.884766 18.9727C1.08008 16.6289 1.08008 15.3594 0.884766 15.1641C0.689453 14.9688 0.591797 14.6758 0.591797 14.2852C0.591797 12.5273 0.787109 11.5508 1.17773 11.3555C1.56836 10.9648 1.56836 10.4766 1.17773 9.89062C2.34961 7.74219 3.22852 6.66797 3.81445 6.66797C4.5957 6.47266 5.18164 6.17969 5.57227 5.78906C6.54883 5.78906 7.23242 5.88672 7.62305 6.08203C8.01367 6.08203 8.4043 5.78906 8.79492 5.20312H12.3105C13.873 5.59375 14.752 5.78906 14.9473 5.78906C15.1426 5.59375 15.4355 5.49609 15.8262 5.49609C18.1699 5.69141 19.9277 5.69141 21.0996 5.49609C22.4668 5.30078 23.7363 5.39844 24.9082 5.78906C25.4941 5.39844 26.1777 5.30078 26.959 5.49609C27.9355 5.69141 28.4238 5.59375 28.4238 5.20312C30.5723 5.39844 31.9395 5.59375 32.5254 5.78906C33.1113 5.78906 33.5996 5.69141 33.9902 5.49609C36.9199 5.10547 38.5801 5.00781 38.9707 5.20312C40.5332 5.39844 41.4121 5.49609 41.6074 5.49609C41.998 5.30078 42.3887 5.20312 42.7793 5.20312C45.123 5.20312 46.2949 5.00781 46.2949 4.61719C49.2246 5.59375 51.373 5.98437 52.7402 5.78906C54.3027 5.39844 55.5723 5.20312 56.5488 5.20312H63.5801C65.1426 5.00781 66.5098 4.91016 67.6816 4.91016C68.8535 4.71484 70.123 4.42188 71.4902 4.03125C73.4434 4.61719 74.6152 4.8125 75.0059 4.61719C75.5918 4.42188 76.1777 4.22656 76.7637 4.03125H82.3301C85.4551 4.03125 87.7012 4.03125 89.0684 4.03125C90.6309 4.03125 92.1934 4.03125 93.7559 4.03125C94.9277 3.83594 95.9043 3.73828 96.6855 3.73828C97.6621 3.54297 98.541 3.25 99.3223 2.85938L102.838 3.73828C104.596 3.73828 105.572 3.73828 105.768 3.73828C105.963 3.54297 106.256 3.54297 106.646 3.73828C108.209 4.32422 109.088 4.61719 109.283 4.61719C109.479 4.61719 109.771 4.71484 110.162 4.91016C110.748 5.10547 111.334 5.30078 111.92 5.49609C112.506 5.69141 113.189 5.78906 113.971 5.78906C116.119 6.76563 117.779 7.44922 118.951 7.83984C119.928 9.40234 120.611 10.3789 121.002 10.7695C121.588 11.1602 122.076 11.6484 122.467 12.2344C123.639 13.6016 124.225 14.3828 124.225 14.5781C124.42 14.7734 124.615 14.9688 124.811 15.1641C125.982 16.5312 126.568 17.3125 126.568 17.5078C126.568 17.5078 126.666 17.6055 126.861 17.8008C127.643 18.582 128.229 19.2656 128.619 19.8516C129.01 20.4375 129.498 20.9258 130.084 21.3164C131.256 22.6836 132.135 23.8555 132.721 24.832C133.502 25.6133 134.283 26.4922 135.064 27.4688C136.627 29.6172 137.701 30.9844 138.287 31.5703C138.873 32.1562 139.361 32.8398 139.752 33.6211C140.533 34.207 141.119 34.6953 141.51 35.0859C141.9 35.4766 142.291 35.8672 142.682 36.2578C144.635 38.7969 145.807 40.5547 146.197 41.5312C147.564 42.8984 148.443 43.7773 148.834 44.168C149.225 44.5586 149.615 44.9492 150.006 45.3398C151.178 47.4883 152.154 48.9531 152.936 49.7344C154.498 51.4922 155.279 52.4688 155.279 52.6641C155.475 52.8594 155.768 53.25 156.158 53.8359C157.525 55.3984 158.307 56.375 158.502 56.7656C159.869 58.7187 160.553 59.793 160.553 59.9883C160.748 60.1836 160.943 60.3789 161.139 60.5742C162.506 62.332 163.189 63.6016 163.189 64.3828C163.189 64.9688 163.385 65.75 163.775 66.7266C164.361 68.2891 164.752 69.168 164.947 69.3633C165.143 69.5586 165.24 69.8516 165.24 70.2422C165.436 72.3906 165.338 74.1484 164.947 75.5156C164.557 77.2734 164.166 78.3477 163.775 78.7383C163.58 79.1289 163.385 79.5195 163.189 79.9102C162.799 80.4961 162.604 81.1797 162.604 81.9609C162.799 82.5469 162.701 83.2305 162.311 84.0117C160.553 85.5742 159.381 86.6484 158.795 87.2344C158.404 87.625 158.014 88.0156 157.623 88.4062C156.451 89.7734 155.768 90.8477 155.572 91.6289C154.596 92.0195 153.912 92.6055 153.521 93.3867C153.326 93.9727 152.74 94.4609 151.764 94.8516C151.373 95.8281 150.885 96.5117 150.299 96.9023C149.713 97.0977 149.225 97.6836 148.834 98.6602C146.295 100.027 144.244 101.297 142.682 102.469C142.291 102.859 141.9 103.25 141.51 103.641C141.119 104.031 140.631 104.324 140.045 104.52C139.068 105.496 138.385 106.18 137.994 106.57C137.799 106.766 137.506 107.059 137.115 107.449C135.553 108.23 133.99 109.207 132.428 110.379C130.475 111.746 129.303 112.527 128.912 112.723C128.717 112.723 128.424 112.918 128.033 113.309C126.275 115.066 125.299 116.043 125.104 116.238C123.736 117.605 123.053 118.387 123.053 118.582C123.053 118.582 122.857 118.68 122.467 118.875ZM106.939 67.8984C105.572 65.9453 104.889 64.8711 104.889 64.6758C104.889 64.4805 104.791 64.1875 104.596 63.7969C103.424 62.625 102.74 61.8438 102.545 61.4531C102.545 61.0625 102.35 60.6719 101.959 60.2812C100.787 58.7187 100.104 57.8398 99.9082 57.6445C98.9316 56.2773 98.1504 55.3008 97.5645 54.7148C97.1738 54.3242 96.7832 53.8359 96.3926 53.25C96.1973 52.6641 95.9043 52.1758 95.5137 51.7852C93.9512 50.2227 93.0723 49.4414 92.877 49.4414C91.5098 47.8789 90.6309 46.9023 90.2402 46.5117C88.873 44.7539 88.0918 43.875 87.8965 43.875C87.8965 43.6797 87.7988 43.582 87.6035 43.582L84.9668 41.2383C84.5762 40.6523 84.1855 40.1641 83.7949 39.7734C83.5996 39.3828 83.3066 38.8945 82.916 38.3086C82.3301 38.1133 81.7441 37.8203 81.1582 37.4297C80.7676 37.0391 80.377 36.6484 79.9863 36.2578C77.8379 35.0859 76.7637 34.5 76.7637 34.5C75.2012 33.7188 74.2246 33.3281 73.834 33.3281C73.4434 33.1328 73.1504 32.9375 72.9551 32.7422C72.1738 32.3516 71.4902 32.1562 70.9043 32.1562C70.3184 31.9609 69.8301 31.7656 69.4395 31.5703C68.8535 31.375 68.2676 31.2773 67.6816 31.2773C67.291 31.2773 66.7051 31.1797 65.9238 30.9844C63.7754 30.7891 62.4082 30.4961 61.8223 30.1055C61.2363 29.7148 60.6504 29.7148 60.0645 30.1055C58.6973 32.6445 57.8184 34.5 57.4277 35.6719C57.2324 36.6484 57.0371 37.7227 56.8418 38.8945L55.6699 43.875C55.4746 44.4609 55.377 45.1445 55.377 45.9258C55.5723 46.707 55.5723 47.4883 55.377 48.2695C54.5957 51.7852 54.3027 54.3242 54.498 55.8867C54.6934 57.2539 54.8887 58.7187 55.084 60.2812C55.084 61.2578 54.9863 62.2344 54.791 63.2109C54.791 64.1875 54.8887 65.1641 55.084 66.1406C55.084 66.7266 55.1816 67.3125 55.377 67.8984C55.5723 68.4844 55.5723 69.168 55.377 69.9492C55.377 71.9023 55.2793 73.0742 55.084 73.4648C55.084 73.8555 55.084 74.2461 55.084 74.6367C55.6699 77.3711 55.8652 79.3242 55.6699 80.4961C55.6699 81.4727 55.8652 82.4492 56.2559 83.4258C55.2793 84.793 55.2793 86.6484 56.2559 88.9922C55.6699 90.1641 55.5723 91.4336 55.9629 92.8008L56.2559 96.6094C55.8652 97.9766 55.6699 99.1484 55.6699 100.125C55.4746 101.688 55.4746 102.957 55.6699 103.934C56.0605 104.715 56.4512 105.594 56.8418 106.57C58.5996 106.375 59.4785 106.277 59.4785 106.277C59.6738 106.277 59.8691 106.18 60.0645 105.984C62.4082 105.594 63.5801 105.398 63.5801 105.398C64.752 104.617 65.5332 104.227 65.9238 104.227C66.5098 104.227 66.998 104.129 67.3887 103.934C69.3418 102.762 70.5137 102.176 70.9043 102.176C71.2949 101.785 71.7832 101.492 72.3691 101.297C72.9551 100.906 73.4434 100.516 73.834 100.125C75.7871 99.1484 76.959 98.6602 77.3496 98.6602C78.7168 97.8789 79.498 97.4883 79.6934 97.4883C80.084 97.4883 80.4746 97.3906 80.8652 97.1953C82.2324 95.8281 83.209 95.1445 83.7949 95.1445L86.4316 92.8008C88.5801 91.043 90.4355 89.9688 91.998 89.5781C93.5605 89.1875 94.5371 88.4062 94.9277 87.2344C95.5137 86.8438 96.002 86.5508 96.3926 86.3555C96.7832 85.9648 97.1738 85.5742 97.5645 85.1836C98.541 84.4023 99.2246 83.9141 99.6152 83.7188C100.006 83.3281 100.201 83.0352 100.201 82.8398C101.373 81.8633 102.154 81.2773 102.545 81.082C102.936 80.8867 103.229 80.5938 103.424 80.2031C104.791 78.4453 105.475 77.5664 105.475 77.5664C106.061 76.7852 106.646 76.1016 107.232 75.5156C108.014 74.7344 108.6 73.8555 108.99 72.8789C108.6 72.0977 108.209 71.3164 107.818 70.5352C107.428 69.7539 107.135 68.875 106.939 67.8984ZM63.5801 192.703C65.5332 192.898 66.6074 192.898 66.8027 192.703C68.7559 192.703 69.8301 192.703 70.0254 192.703C72.1738 192.312 73.4434 192.117 73.834 192.117C74.2246 192.117 74.6152 192.02 75.0059 191.824C76.959 191.238 78.1309 190.75 78.5215 190.359C80.2793 189.969 81.1582 189.773 81.1582 189.773C81.3535 189.578 81.5488 189.48 81.7441 189.48C82.916 188.699 83.7949 188.309 84.3809 188.309C85.1621 188.309 85.748 188.113 86.1387 187.723C87.7012 186.355 88.7754 185.574 89.3613 185.379C89.9473 184.988 90.5332 184.598 91.1191 184.207C92.6816 183.035 93.5605 182.449 93.7559 182.449C93.9512 182.254 94.0488 182.059 94.0488 181.863C95.2207 180.496 95.9043 179.91 96.0996 180.105C96.4902 180.105 96.7832 180.008 96.9785 179.812C98.1504 177.078 99.0293 175.32 99.6152 174.539C100.201 173.562 100.689 172.488 101.08 171.316C102.643 169.559 103.619 168.484 104.01 168.094C104.596 167.508 104.986 167.02 105.182 166.629C105.182 165.066 105.182 164.285 105.182 164.285C105.377 164.09 105.475 163.797 105.475 163.406C105.084 160.672 104.889 159.109 104.889 158.719C104.889 158.328 104.791 157.645 104.596 156.668C103.229 155.301 102.35 154.52 101.959 154.324C101.764 153.934 101.666 153.445 101.666 152.859C99.9082 151.297 98.834 150.516 98.4434 150.516C98.248 150.516 98.0527 150.418 97.8574 150.223C96.6855 148.855 95.3184 147.684 93.7559 146.707C92.1934 145.145 91.2168 144.168 90.8262 143.777C90.4355 143.191 89.8496 142.801 89.0684 142.605C87.8965 141.238 87.1152 140.457 86.7246 140.262C86.334 140.066 85.9434 139.871 85.5527 139.676C83.5996 138.504 82.5254 137.82 82.3301 137.625C81.3535 136.844 80.5723 136.453 79.9863 136.453C79.5957 136.453 79.1074 136.355 78.5215 136.16C76.7637 134.988 75.6895 134.305 75.2988 134.109C74.9082 133.719 74.6152 133.621 74.4199 133.816C72.2715 133.035 71.002 132.645 70.6113 132.645C70.416 132.645 70.2207 132.547 70.0254 132.352C66.5098 130.984 64.166 130.301 62.9941 130.301C62.2129 129.91 61.041 129.715 59.4785 129.715C58.1113 129.52 57.1348 129.422 56.5488 129.422C55.9629 130.203 55.6699 131.863 55.6699 134.402C55.6699 135.965 55.7676 137.527 55.9629 139.09C56.1582 140.457 56.3535 141.922 56.5488 143.484C56.7441 144.266 56.8418 145.047 56.8418 145.828C57.0371 146.609 57.0371 147.195 56.8418 147.586C57.2324 149.539 57.3301 150.613 57.1348 150.809C57.1348 150.809 57.1348 151.004 57.1348 151.395C57.3301 152.957 57.4277 154.227 57.4277 155.203C57.2324 156.375 57.2324 157.254 57.4277 157.84C57.623 158.426 57.5254 158.816 57.1348 159.012C57.3301 160.77 57.4277 161.844 57.4277 162.234C57.623 162.625 57.7207 163.016 57.7207 163.406C57.916 165.164 57.916 166.727 57.7207 168.094C57.7207 169.461 57.7207 170.633 57.7207 171.609L58.0137 174.832C58.0137 176.199 58.1113 177.078 58.3066 177.469C58.502 177.859 58.5996 178.348 58.5996 178.934C58.7949 179.715 58.8926 181.082 58.8926 183.035C58.6973 184.598 58.5996 185.574 58.5996 185.965C58.7949 186.16 58.8926 186.355 58.8926 186.551C59.2832 188.504 59.3809 189.578 59.1855 189.773C59.1855 189.969 59.2832 190.164 59.4785 190.359C60.6504 192.117 61.5293 192.996 62.1152 192.996C62.7012 192.801 63.1895 192.703 63.5801 192.703ZM311.139 174.832C309.186 175.418 308.111 175.809 307.916 176.004C307.916 176.199 307.721 176.395 307.33 176.59L304.693 178.934C302.74 180.301 301.764 180.984 301.764 180.984C300.396 181.961 299.42 182.645 298.834 183.035C298.443 183.426 298.053 183.816 297.662 184.207C297.271 184.598 296.881 184.988 296.49 185.379C294.732 187.137 293.756 188.113 293.561 188.309C293.365 188.504 293.072 188.699 292.682 188.895C291.51 189.48 290.631 190.262 290.045 191.238C287.701 192.801 286.236 193.68 285.65 193.875C283.502 195.242 282.33 196.023 282.135 196.219C282.135 196.414 281.939 196.609 281.549 196.805C279.4 197.586 278.033 197.977 277.447 197.977C277.057 197.977 276.666 198.074 276.275 198.27C273.15 199.832 270.611 200.418 268.658 200.027C267.096 199.637 265.729 199.051 264.557 198.27C262.994 197.488 261.822 197 261.041 196.805C260.455 196.609 259.869 196.316 259.283 195.926C258.111 194.754 257.33 194.07 256.939 193.875C256.549 193.484 256.158 193.094 255.768 192.703C254.791 191.727 253.521 191.238 251.959 191.238C250.201 189.48 249.029 188.602 248.443 188.602C248.053 188.406 247.564 188.113 246.979 187.723C245.807 186.746 244.928 185.965 244.342 185.379C242.975 184.012 241.998 183.035 241.412 182.449C240.24 180.691 239.459 179.617 239.068 179.227C238.678 178.836 238.287 178.445 237.896 178.055C235.748 177.664 234.674 177.762 234.674 178.348C234.869 178.738 234.869 179.129 234.674 179.52C234.479 179.91 234.283 180.398 234.088 180.984C233.893 181.57 233.697 182.156 233.502 182.742C232.916 184.891 232.623 186.062 232.623 186.258C231.842 188.406 231.354 189.578 231.158 189.773C231.158 189.773 231.158 189.969 231.158 190.359L230.279 193.875C230.084 196.219 229.889 197.684 229.693 198.27C229.498 200.809 229.01 202.762 228.229 204.129C227.447 206.668 226.959 208.035 226.764 208.23L226.178 211.453C225.982 213.016 225.787 214.09 225.592 214.676C225.592 215.262 225.592 215.945 225.592 216.727C225.006 218.484 224.322 219.754 223.541 220.535C222.955 222.098 222.662 222.977 222.662 223.172C222.857 223.367 222.857 223.562 222.662 223.758C221.686 224.539 221.002 225.125 220.611 225.516C220.221 226.102 219.83 226.59 219.439 226.98C218.072 227.371 216.803 227.469 215.631 227.273C212.701 227.078 210.26 226.785 208.307 226.395C207.33 226.004 206.256 225.516 205.084 224.93C204.107 224.539 203.033 224.148 201.861 223.758C199.127 222.586 197.662 222 197.467 222C195.709 221.609 194.635 221.316 194.244 221.121C194.049 220.926 193.756 220.73 193.365 220.535C191.412 219.949 190.338 219.559 190.143 219.363C189.947 218.973 189.752 218.973 189.557 219.363C187.018 218.582 185.357 218.289 184.576 218.484C183.99 218.484 183.502 218.289 183.111 217.898C181.549 216.531 180.572 215.75 180.182 215.555C179.986 215.164 179.498 214.969 178.717 214.969C177.154 213.602 175.885 212.625 174.908 212.039C173.932 210.477 172.955 209.402 171.979 208.816C170.807 208.035 170.221 206.766 170.221 205.008C170.221 204.031 170.318 203.25 170.514 202.664C170.709 202.078 171.002 201.395 171.393 200.613C172.174 198.855 172.662 197.781 172.857 197.391C173.053 196.805 173.346 196.219 173.736 195.633C174.518 194.07 175.104 192.996 175.494 192.41C175.885 191.824 176.178 191.238 176.373 190.652C176.568 189.871 176.861 189.285 177.252 188.895C177.643 187.918 177.936 186.941 178.131 185.965C178.326 184.793 178.912 183.914 179.889 183.328C180.475 180.984 181.061 179.52 181.646 178.934C181.451 178.348 181.549 177.566 181.939 176.59C182.525 175.418 182.916 174.637 183.111 174.246C184.283 171.512 185.162 169.559 185.748 168.387C186.529 167.02 187.213 165.555 187.799 163.992C188.775 161.844 189.361 160.574 189.557 160.184C189.752 159.793 189.947 159.402 190.143 159.012C190.924 157.059 191.314 156.082 191.314 156.082C191.314 155.887 191.412 155.691 191.607 155.496C192.193 154.52 192.584 153.641 192.779 152.859C192.975 152.078 193.268 151.395 193.658 150.809C194.049 149.832 194.537 148.66 195.123 147.293C195.709 145.926 196.295 144.656 196.881 143.484C197.662 141.336 198.248 140.262 198.639 140.262C199.029 138.504 199.322 137.625 199.518 137.625C199.713 137.43 199.908 137.137 200.104 136.746C200.689 134.598 200.982 133.328 200.982 132.938C201.178 132.547 201.373 132.156 201.568 131.766C201.764 130.789 201.959 129.91 202.154 129.129C202.35 128.152 202.545 127.273 202.74 126.492C203.326 124.734 204.01 123.074 204.791 121.512C205.182 120.926 205.475 120.242 205.67 119.461C206.061 118.68 206.549 118.094 207.135 117.703C207.525 116.141 207.721 115.262 207.721 115.066C207.721 114.676 207.818 114.285 208.014 113.895C208.99 111.551 209.479 110.379 209.479 110.379C209.674 110.184 209.869 109.891 210.064 109.5C211.236 106.961 211.822 105.301 211.822 104.52C212.018 103.738 212.311 102.859 212.701 101.883C213.092 100.906 213.482 99.9297 213.873 98.9531C214.459 97.9766 214.752 96.9023 214.752 95.7305C215.143 95.3398 215.533 94.8516 215.924 94.2656C216.314 93.6797 216.705 92.9961 217.096 92.2148C217.682 90.8477 217.975 89.9688 217.975 89.5781C217.975 88.9922 218.072 88.5039 218.268 88.1133C218.658 87.1367 219.049 86.3555 219.439 85.7695C219.83 84.9883 220.123 84.1094 220.318 83.1328C221.295 80.5938 222.174 78.543 222.955 76.9805C223.736 75.418 224.322 73.8555 224.713 72.293C225.104 71.3164 225.299 70.4375 225.299 69.6562C225.494 68.875 225.787 67.9961 226.178 67.0195C226.568 65.8477 227.057 64.6758 227.643 63.5039L228.229 59.6953C228.424 59.3047 228.619 58.9141 228.814 58.5234C229.01 57.9375 229.303 57.3516 229.693 56.7656C230.279 55.0078 230.572 53.6406 230.572 52.6641C230.768 51.4922 231.061 50.418 231.451 49.4414C232.037 47.4883 232.428 46.4141 232.623 46.2188C233.404 43.0938 234.088 40.5547 234.674 38.6016C235.455 35.4766 236.041 33.3281 236.432 32.1562C236.822 30.9844 237.213 29.6172 237.604 28.0547C237.799 26.8828 237.994 26.1016 238.189 25.7109C238.385 25.3203 238.58 24.832 238.775 24.2461C239.361 21.9023 239.752 20.4375 239.947 19.8516C240.338 19.0703 240.729 18.4844 241.119 18.0938L243.17 13.6992C243.951 12.918 244.439 12.0391 244.635 11.0625C245.025 10.0859 245.807 9.40234 246.979 9.01172C247.76 7.25391 248.248 6.375 248.443 6.375C248.639 6.17969 248.834 5.88672 249.029 5.49609C249.811 4.32422 250.592 3.34766 251.373 2.56641C252.154 1.78516 252.838 1.29687 253.424 1.10156C254.01 0.90625 254.596 0.90625 255.182 1.10156C255.963 1.10156 256.646 1.19922 257.232 1.39453C258.795 1.00391 259.576 1.10156 259.576 1.6875C259.771 2.07813 260.162 2.17578 260.748 1.98047C262.896 2.17578 264.361 2.27344 265.143 2.27344C265.924 2.07813 266.803 2.17578 267.779 2.56641C270.123 2.17578 271.588 2.46875 272.174 3.44531C274.127 2.66406 275.104 2.37109 275.104 2.56641C275.104 2.56641 275.299 2.56641 275.689 2.56641C277.838 2.37109 279.205 2.27344 279.791 2.27344C280.377 2.07813 280.963 1.98047 281.549 1.98047C282.525 1.98047 283.404 1.98047 284.186 1.98047C285.162 1.78516 286.139 1.6875 287.115 1.6875C288.482 1.6875 289.752 1.98047 290.924 2.56641C292.096 2.95703 293.17 3.44531 294.146 4.03125C296.1 5.59375 296.979 6.47266 296.783 6.66797C296.588 6.86328 296.686 7.05859 297.076 7.25391C297.467 7.64453 297.857 8.13281 298.248 8.71875C298.639 9.10938 298.932 9.5 299.127 9.89062C299.322 10.2813 299.322 10.7695 299.127 11.3555C299.127 11.9414 299.127 12.5273 299.127 13.1133C299.518 14.8711 300.104 16.4336 300.885 17.8008C301.861 19.5586 302.35 20.7305 302.35 21.3164C302.35 21.707 302.545 22.1953 302.936 22.7812C303.131 24.1484 304.01 25.418 305.572 26.5898C305.768 28.7383 306.549 30.9844 307.916 33.3281C308.502 34.1094 308.893 35.2812 309.088 36.8438C309.283 37.8203 309.479 38.6016 309.674 39.1875C310.064 39.7734 310.455 40.5547 310.846 41.5312C311.627 43.4844 312.213 45.0469 312.604 46.2188C312.994 47.3906 313.385 48.4648 313.775 49.4414C313.971 50.0273 314.166 50.7109 314.361 51.4922C314.752 52.2734 315.045 53.1523 315.24 54.1289C315.631 55.1055 315.924 55.9844 316.119 56.7656C316.314 57.3516 316.705 58.0352 317.291 58.8164C318.072 60.1836 318.463 61.2578 318.463 62.0391C318.463 62.625 318.658 63.3086 319.049 64.0898C319.439 64.8711 319.732 65.6523 319.928 66.4336C320.318 67.0195 320.807 67.6055 321.393 68.1914C321.393 69.168 321.49 70.0469 321.686 70.8281C322.076 71.6094 322.467 72.3906 322.857 73.1719C323.639 75.5156 324.029 76.9805 324.029 77.5664C324.42 78.1523 324.615 78.7383 324.615 79.3242C324.811 79.7148 325.104 80.1055 325.494 80.4961C325.689 81.668 326.08 82.7422 326.666 83.7188C327.057 84.3047 327.35 84.8906 327.545 85.4766C327.936 86.0625 328.326 86.6484 328.717 87.2344C329.498 88.9922 329.791 90.2617 329.596 91.043C329.596 91.6289 329.693 92.2148 329.889 92.8008C330.084 94.7539 330.865 96.707 332.232 98.6602C333.014 101.98 333.697 104.031 334.283 104.812C334.674 105.789 335.064 106.961 335.455 108.328C335.846 109.695 336.236 110.867 336.627 111.844C337.018 112.43 337.311 112.918 337.506 113.309C337.701 113.699 337.896 114.383 338.092 115.359C338.482 117.312 338.873 118.68 339.264 119.461C339.654 120.047 339.947 120.633 340.143 121.219C340.338 121.609 340.533 122.195 340.729 122.977C341.119 123.953 341.412 124.734 341.607 125.32C341.803 125.906 342.096 126.492 342.486 127.078C342.877 127.859 343.072 128.543 343.072 129.129C343.268 129.715 343.561 130.398 343.951 131.18C344.537 133.133 345.025 134.402 345.416 134.988C345.807 135.379 346.197 135.965 346.588 136.746C346.979 137.527 347.174 138.309 347.174 139.09C347.369 139.871 347.662 140.75 348.053 141.727C348.443 142.312 348.834 142.898 349.225 143.484C349.615 143.875 350.006 144.461 350.396 145.242C350.982 146.805 351.275 147.781 351.275 148.172C351.275 148.562 351.471 148.953 351.861 149.344C353.229 151.297 353.912 152.469 353.912 152.859C353.912 153.25 353.912 153.641 353.912 154.031C354.303 155.008 354.693 155.887 355.084 156.668C355.67 157.254 356.158 157.938 356.549 158.719C357.525 160.672 358.111 162.039 358.307 162.82C358.697 163.602 359.088 164.285 359.479 164.871C360.064 165.457 360.748 166.336 361.529 167.508C362.115 169.07 362.408 169.949 362.408 170.145C362.408 170.34 362.604 170.633 362.994 171.023C363.775 173.367 364.264 174.637 364.459 174.832C364.654 175.027 364.752 175.223 364.752 175.418C365.143 175.809 365.338 176.297 365.338 176.883C365.338 177.469 365.533 178.055 365.924 178.641C366.119 179.227 366.314 179.812 366.51 180.398C366.9 180.789 367.193 181.277 367.389 181.863C368.561 184.012 369.146 185.281 369.146 185.672C370.514 187.234 371.197 188.309 371.197 188.895C371.393 189.48 371.686 189.969 372.076 190.359C372.467 191.141 373.053 192.117 373.834 193.289C375.201 195.633 376.178 197 376.764 197.391C377.545 197.781 378.131 198.367 378.521 199.148C379.303 201.102 379.791 202.566 379.986 203.543C380.182 204.52 380.475 205.398 380.865 206.18C380.084 208.328 379.693 209.5 379.693 209.695L377.057 211.746C375.689 213.309 374.811 214.09 374.42 214.09C374.029 214.09 373.639 214.188 373.248 214.383C370.123 215.164 367.486 216.336 365.338 217.898C363.385 218.289 362.213 218.582 361.822 218.777C361.627 218.777 361.432 218.973 361.236 219.363C360.455 219.363 359.771 219.461 359.186 219.656C358.6 219.852 358.014 220.047 357.428 220.242C357.037 220.438 356.549 220.535 355.963 220.535C355.572 220.535 354.986 220.633 354.205 220.828C353.619 221.023 352.936 221.316 352.154 221.707C351.568 222.098 350.885 222.488 350.104 222.879C349.713 223.074 349.225 223.27 348.639 223.465C348.053 223.855 347.564 224.148 347.174 224.344C346.197 224.539 345.123 224.637 343.951 224.637C342.779 224.832 341.607 225.027 340.436 225.223C339.459 225.418 338.58 225.516 337.799 225.516C337.018 225.516 336.139 225.613 335.162 225.809C333.795 225.809 332.818 225.711 332.232 225.516C331.646 225.516 330.963 225.418 330.182 225.223C329.4 224.832 328.717 224.637 328.131 224.637C327.545 224.832 327.057 224.832 326.666 224.637C324.518 221.707 323.053 219.754 322.271 218.777C321.686 217.605 321.295 215.945 321.1 213.797L319.635 210.281C319.439 209.5 319.342 208.426 319.342 207.059C318.365 204.91 317.877 203.543 317.877 202.957C317.291 201.785 316.998 200.516 316.998 199.148C316.998 197.781 316.803 196.512 316.412 195.34C316.021 194.363 315.729 193.289 315.533 192.117C315.533 190.945 315.338 189.676 314.947 188.309C314.752 187.527 314.557 186.746 314.361 185.965C314.166 184.988 313.971 184.012 313.775 183.035C313.189 180.691 312.896 179.52 312.896 179.52C312.115 177.566 311.529 176.004 311.139 174.832ZM272.467 72.293C270.318 73.6602 269.049 75.3203 268.658 77.2734C268.463 79.0312 267.975 80.4961 267.193 81.668C266.217 84.0117 265.533 85.7695 265.143 86.9414C264.752 87.332 264.557 87.8203 264.557 88.4062C264.557 88.9922 264.459 89.5781 264.264 90.1641C263.287 92.3125 262.701 93.7773 262.506 94.5586C262.506 95.1445 262.311 95.9258 261.92 96.9023C261.334 97.293 260.943 97.9766 260.748 98.9531C260.553 99.7344 260.162 100.418 259.576 101.004C259.186 103.738 258.6 106.082 257.818 108.035C256.842 110.574 256.256 112.137 256.061 112.723C256.061 113.113 256.061 113.699 256.061 114.48C255.084 116.434 254.596 117.605 254.596 117.996C254.596 118.191 254.4 118.484 254.01 118.875C253.424 120.242 252.936 121.219 252.545 121.805C252.35 122.391 252.154 122.879 251.959 123.27C251.373 125.418 250.982 126.883 250.787 127.664C250.592 128.445 250.396 129.129 250.201 129.715C249.811 132.449 249.518 134.012 249.322 134.402C249.322 134.793 249.127 135.281 248.736 135.867C248.346 136.844 248.053 137.723 247.857 138.504C247.857 139.09 247.662 139.773 247.271 140.555C246.881 142.508 246.588 143.875 246.393 144.656C246.002 146.023 245.709 146.902 245.514 147.293C245.318 147.684 245.123 148.074 244.928 148.465C244.146 150.418 243.756 151.59 243.756 151.98C243.561 152.957 243.268 153.836 242.877 154.617C242.682 155.203 242.486 155.789 242.291 156.375C243.072 156.766 243.756 156.961 244.342 156.961C244.928 156.766 245.709 156.57 246.686 156.375C248.248 157.156 250.006 157.352 251.959 156.961C254.107 156.375 255.67 156.375 256.646 156.961C257.037 156.57 257.525 156.375 258.111 156.375C258.893 156.375 259.576 156.375 260.162 156.375C260.748 156.18 261.822 156.082 263.385 156.082C263.971 156.082 264.557 156.18 265.143 156.375C265.924 156.375 266.705 156.375 267.486 156.375H274.225C275.787 156.18 276.666 156.18 276.861 156.375C277.057 156.375 277.35 156.375 277.74 156.375C278.131 156.57 278.619 156.668 279.205 156.668C279.791 156.473 280.377 156.375 280.963 156.375H288.287H292.682C293.658 156.375 294.537 156.277 295.318 156.082C296.295 155.887 297.076 155.984 297.662 156.375C298.248 156.18 299.518 156.082 301.471 156.082C302.447 153.543 302.936 152.273 302.936 152.273C302.154 150.516 301.568 149.051 301.178 147.879C300.982 146.707 300.592 145.535 300.006 144.363C300.006 143.387 299.811 142.41 299.42 141.434C299.225 140.457 299.029 139.48 298.834 138.504C298.248 136.16 297.857 134.598 297.662 133.816C297.467 132.84 297.174 131.961 296.783 131.18C296.002 129.617 295.611 128.641 295.611 128.25C295.611 127.664 295.514 127.176 295.318 126.785C294.342 124.832 293.854 123.465 293.854 122.684C293.463 121.902 293.072 120.73 292.682 119.168C291.705 117.215 291.217 115.945 291.217 115.359C291.217 114.578 291.119 113.992 290.924 113.602C290.143 111.258 289.654 109.793 289.459 109.207C289.459 108.621 289.361 108.133 289.166 107.742C288.971 107.156 288.775 106.668 288.58 106.277C288.58 105.691 288.482 105.105 288.287 104.52C287.311 102.957 286.725 101.785 286.529 101.004C286.334 100.223 286.041 99.5391 285.65 98.9531C285.26 97.9766 284.967 97 284.771 96.0234C284.576 95.0469 284.283 94.2656 283.893 93.6797L282.428 89.8711C281.256 87.1367 280.377 85.3789 279.791 84.5977C279.205 83.8164 278.912 82.9375 278.912 81.9609C277.936 80.7891 277.447 79.8125 277.447 79.0312C276.861 78.0547 276.568 77.3711 276.568 76.9805C276.568 76.3945 276.373 75.9062 275.982 75.5156C275.006 73.3672 273.834 72.293 272.467 72.293Z" fill="#E8E8F2"/>
</svg>
